<svg width="75" height="75" viewBox="0 0 75 75" fill="none" xmlns="http://www.w3.org/2000/svg">
<mask id="path-1-inside-1_57_10" fill="white">
<path d="M27.9484 0H28.9312L30.1597 0.12275L31.4496 0.429624L32.6167 0.859247L33.5995 1.35025L34.2752 1.77987L35.0737 2.39362L35.8108 3.06874L36.4865 3.80524L37.1622 4.72586L37.4079 5.15548V5.27823L37.5921 5.21686L38.145 4.35761L38.9435 3.37561L39.8649 2.45499L40.9091 1.65712L41.8305 1.10475L42.9975 0.613748L44.226 0.245499L45.3317 0.0613748L46.0688 0H47.113L48.2801 0.12275L49.3857 0.368249L50.4914 0.736498L51.6585 1.28887L52.7641 2.02537L53.4398 2.57774L54.1155 3.19149L54.6683 3.86661L55.344 4.78723L56.0811 6.19885L56.4496 7.18085L56.7568 8.46972L56.8796 9.32897L57.0025 11.293L57.2482 12.5205L57.6167 13.5025L58.1695 14.5458L58.7838 15.3437L59.398 16.0188L60.258 16.6939L61.0565 17.1849L62.1622 17.6759L63.0835 17.9214L63.8206 18.0442L65.7248 18.1669L66.9533 18.3511L68.059 18.6579L69.3489 19.2103L70.3317 19.7627L71.3145 20.4992L71.9287 21.0516L72.6044 21.7267L73.2801 22.6473L73.8329 23.5679L74.2629 24.4272L74.7543 25.9002L75 27.4345V29.3985L74.7543 30.9329L74.2629 32.4059L73.7715 33.3879L73.2801 34.2471L72.6044 35.1064L71.8673 35.9043L71.2531 36.4566L70.2088 37.1931L69.7789 37.4386V37.5614L70.516 37.991L71.3145 38.6047L72.2359 39.464L72.973 40.3232L73.5872 41.2439L74.14 42.2872L74.6314 43.5761L74.8771 44.6195L75 45.6015V47.5041L74.7543 49.0385L74.2629 50.5115L73.7715 51.4935L73.3415 52.23L72.8501 52.9051L72.2973 53.5802L71.4988 54.3781L70.516 55.1146L69.3489 55.7897L68.1818 56.2807L67.1376 56.5876L65.6634 56.8331L64.2506 56.8944L62.9607 57.0786L61.9165 57.3854L60.8722 57.8764L59.8894 58.5516L59.0909 59.2881L58.5381 59.9018L57.9238 60.8838L57.4939 61.743L57.1867 62.6637L57.0025 63.6457L56.8796 65.671L56.6339 67.0827L56.2654 68.3101L55.774 69.4149L55.2826 70.2741L54.7912 70.9493L54.1155 71.7471L53.3784 72.4836L52.3956 73.2201L51.4742 73.7725L50.43 74.2635L49.5086 74.5704L48.0958 74.8772L46.8673 75H46.1916L44.5946 74.8159L43.4275 74.509L42.4447 74.1408L41.4619 73.6498L40.602 73.0974L39.9877 72.6064L39.1278 71.8085L38.6978 71.3175L37.8993 70.2741L37.5921 69.7831V69.6604L37.4079 69.8445L36.9165 70.581L36.2408 71.4403L35.5037 72.2381L34.7052 72.9133L33.7838 73.527L32.7396 74.0794L31.5725 74.509L30.6511 74.7545L29.484 74.9386L28.7469 75H28.0713L26.4742 74.8159L25.2457 74.509L24.2629 74.1408L23.0958 73.527L22.0516 72.7905L21.4373 72.2381L20.9459 71.8085L20.3931 71.1334L19.8403 70.3969L19.2875 69.4763L18.7961 68.3715L18.3661 66.9599L18.1818 65.8552L18.1204 65.3028L18.059 63.8912L17.8747 62.7864L17.5676 61.8044L17.0762 60.761L16.4005 59.7791L16.0319 59.3494L15.5405 58.9198L14.9877 58.4288L14.1278 57.8764L13.0835 57.3854L12.0393 57.0786L10.8722 56.8944L9.27518 56.8331L8.10811 56.6489L7.18673 56.4034L6.20393 56.0352L5.22113 55.5442L4.23833 54.9304L3.4398 54.2553L2.9484 53.8257L2.51843 53.3347L1.84275 52.4754L1.35135 51.6776L0.859951 50.757L0.429975 49.5908L0.12285 48.3633L0 47.32V45.7242L0.184275 44.4354L0.4914 43.2692L0.982801 42.1031L1.4742 41.1825L1.90418 40.5687L2.39558 39.955L2.9484 39.3412L3.62408 38.6661L4.60688 37.9296L5.28256 37.5L4.6683 37.0704L3.80835 36.4566L3.07125 35.7815L2.51843 35.2291L1.90418 34.4313L1.35135 33.572L0.859951 32.59L0.4914 31.6694L0.184275 30.5646L0 29.2144V27.68L0.184275 26.3298L0.4914 25.1637L1.04423 23.8748L1.59705 22.8928L2.08845 22.2177L2.57985 21.6039L3.13268 20.9902H3.25553V20.8674L4.11548 20.1923L4.914 19.6399L5.89681 19.0876L7.12531 18.5966L8.35381 18.2897L9.15233 18.1669L11.1179 18.0442L12.285 17.8601L13.2064 17.5532L14.1892 17.0622L15.0491 16.5098L15.7862 15.8347L16.0934 15.5278L16.5848 14.9754L17.0762 14.1776L17.5676 13.1956L17.8747 12.1522L18.059 11.1088L18.1204 9.75859L18.3047 8.34697L18.6118 7.18085L18.9803 6.19885L19.4717 5.21686L20.086 4.23486L20.7617 3.43699L20.8231 3.31424H20.9459L21.0688 3.06874L21.8059 2.39362L22.9115 1.59574L23.8943 1.04337L24.8771 0.613748L26.1057 0.245499L27.2113 0.0613748L27.9484 0ZM27.887 2.45499L26.5971 2.63912L25.3071 3.06874L24.2629 3.62111L23.4644 4.23486L22.7273 4.90998L22.113 5.64648L21.4988 6.62848L21.0074 7.73322L20.7617 8.65385L20.6388 9.45172L20.516 11.4157L20.3317 12.5205L20.086 13.5025L19.5946 14.73L18.9803 15.8347L18.3661 16.6939L17.7518 17.3691L17.4447 17.7373L16.769 18.2897L16.1548 18.7807L14.9877 19.4558L13.8821 19.9468L12.8378 20.2537L11.9779 20.4378L10.7494 20.5606L9.52088 20.6219L8.35381 20.8061L7.24816 21.1743L6.20393 21.7267L5.52826 22.2177L4.72973 22.8928L4.1769 23.5065L3.74693 24.1203L3.1941 25.1023L2.82555 26.0229L2.57985 26.9435L2.457 28.0483V28.9075L2.64128 30.1964L3.13268 31.6694L3.74693 32.7741L4.4226 33.6334L5.15971 34.3699L5.95823 34.9836L6.81818 35.4746L7.86241 35.9043L8.84521 36.1498L9.82801 36.2725H10.8722L11.855 36.1498L12.8993 35.8429L13.8821 35.4133L14.742 34.9223L15.4177 34.3699L16.0319 33.8175L16.6462 33.081L17.2604 32.099L17.6904 31.117L17.9361 30.2578L18.1204 29.153L18.1818 27.7414L18.4275 26.1457L18.7961 24.9182L19.2875 23.752L20.0246 22.5245L20.8231 21.5426L21.7445 20.6219L22.7273 19.8854L23.7101 19.3331L24.7543 18.8421L25.9214 18.4738L27.2727 18.2283L28.0098 18.1669H28.8698L30.4668 18.3511L31.6339 18.6579L32.5553 19.0262L33.9681 19.7627L34.8894 20.4378L35.7494 21.1743L36.3636 21.8494L37.1622 22.9542L37.8993 24.3658L38.2678 25.4092L38.5749 26.6367L38.6978 27.7414L38.7592 29.0917L38.9435 30.2578L39.2506 31.2398L39.8034 32.4059L40.2948 33.1424L40.9705 33.8789L41.7076 34.6154L42.3219 35.045L43.3047 35.5974L44.4717 36.027L45.3931 36.2111L45.8845 36.2725H47.4201L48.6486 36.027L49.57 35.7201L50.7371 35.1064L51.4128 34.6154L52.1499 34.0016L52.5799 33.5106L53.1941 32.7128L53.8084 31.5466L54.2383 30.2578L54.3612 29.644L54.4226 29.0303V27.8642L54.2998 26.8822L54.0541 25.9615L53.6241 24.9182L53.1327 24.0589L52.6413 23.4452L52.0885 22.8314L51.4128 22.2177L50.4914 21.6039L49.4472 21.1129L48.4644 20.8061L47.3587 20.6219L45.3317 20.4992L44.2875 20.3151L43.1818 20.0082L41.8919 19.4558L41.0319 18.9648L40.0491 18.2283L39.4349 17.6759L38.7592 17.0008L38.0835 16.0802L37.5921 15.2823L37.0393 14.1162L36.7322 13.1956L36.4251 11.784L36.3022 10.6178L36.2408 9.39034L36.0565 8.34697L35.7494 7.36498L35.258 6.38298L34.7666 5.64648L34.0909 4.84861L33.5995 4.35761L32.6781 3.68249L31.8182 3.19149L30.7125 2.76187L29.6069 2.51637L28.9926 2.45499H27.887ZM46.1302 2.45499L45.086 2.57774L43.9189 2.88462L42.9361 3.31424L42.0762 3.86661L41.4619 4.35761L40.7248 5.09411L40.1106 5.83061L39.5577 6.8126L39.1278 7.7946L38.8821 8.71522L38.7592 9.57447V11.0475L38.9435 12.1522L39.2506 13.1342L39.742 14.1776L40.2334 14.9141L40.7862 15.5892L41.4619 16.2643L42.3833 16.9394L43.5504 17.5532L44.4103 17.8601L45.2088 18.0442L46.683 18.1669L47.973 18.2897L49.0172 18.4738L50.2457 18.8421L51.4742 19.3944L52.5799 20.0696L53.2555 20.6219L53.9926 21.2971L54.6069 21.9722L55.344 23.0155L55.9582 24.1817L56.3882 25.3478L56.6953 26.5753L56.8182 27.3732L56.8796 28.4165L56.7568 29.9509L56.4496 31.3625L56.0197 32.5286L55.344 33.8175L54.6683 34.7995L53.8698 35.7201L53.1327 36.3953L52.1499 37.0704L51.1671 37.6227L50.3071 37.991L49.14 38.3592L47.8501 38.6047L47.2359 38.6661L45.8845 38.7275L44.7174 38.9116L43.4275 39.3412L42.5061 39.8322L41.8305 40.3232L41.2162 40.8756L40.7862 41.2439L40.1106 42.1031L39.5577 43.0237L39.0663 44.2512L38.8821 44.9877L38.7592 45.7856V47.3813L39.0663 48.9157L39.5577 50.0818L40.0491 50.9411L40.7248 51.8003L41.4005 52.4754L42.3219 53.1506L43.1818 53.6416L44.226 54.0712L45.3317 54.3167L45.8231 54.3781H47.3587L48.4644 54.1939L49.57 53.8257L50.5528 53.3347L51.2899 52.8437L52.0885 52.1686L52.8256 51.3707L53.3784 50.5115L53.8698 49.5295L54.1769 48.6088L54.3612 47.6882L54.4226 47.1358L54.5455 45.1718L54.7912 43.9444L55.0983 42.9624L55.5283 41.9804L55.9582 41.1825L56.6953 40.1391L57.5553 39.2185L58.0467 38.7275L59.0295 37.991L60.0123 37.4386L61.0565 36.9476L62.285 36.5794L63.2678 36.3953L63.8206 36.3339L65.2334 36.2725L66.5233 36.0884L67.5061 35.7815L68.7961 35.1678L69.656 34.554L70.4545 33.8175L70.5774 33.572H70.7002L71.3145 32.7741L71.9287 31.608L72.3587 30.3191L72.543 29.3372V27.4959L72.2973 26.2684L71.8673 25.1023L71.3145 24.1203L70.7002 23.3224L69.9631 22.5859L69.226 21.9722L68.1818 21.3584L67.2604 20.9902L66.4005 20.7447L65.5405 20.6219L63.5135 20.4992L62.4079 20.3151L60.9951 19.8854L59.5823 19.2103L58.6609 18.5966L57.9853 18.0442L57.3096 17.4304L56.8796 16.9394L56.2654 16.1416L55.7125 15.2209L55.1597 14.0548L54.8526 13.1342L54.5455 11.7226L54.484 11.1088L54.4226 9.69722L54.2383 8.46972L53.9312 7.42635L53.4398 6.44435L53.0098 5.76923L52.5184 5.15548L51.5971 4.23486L50.7371 3.62111L49.57 3.00736L48.4029 2.63912L47.7273 2.51637L46.9902 2.45499H46.1302ZM27.5184 20.6219L26.2899 20.8674L25.1228 21.2971L24.14 21.8494L23.2801 22.5245L22.4201 23.3838L21.8059 24.243L21.3145 25.1023L20.8845 26.2684L20.7002 27.1277L20.4545 30.0736L20.1474 31.3625L19.7174 32.59L19.0418 33.8789L18.4275 34.7381L17.6904 35.5974L17.2604 36.027L16.5848 36.5794L15.4791 37.3159L14.0663 37.991L12.8993 38.3592L11.6708 38.6047L11.1179 38.6661L9.76658 38.7275L8.47666 38.9116L7.49386 39.2185L6.75676 39.5254L5.95823 40.0164L5.15971 40.6301L4.914 40.8142V40.937H4.79115V41.0597H4.6683V41.1825H4.54545L3.86978 42.0417L3.31695 42.9624L2.88698 43.9444L2.57985 45.0491L2.457 46.2152V47.0131L2.64128 48.302L2.9484 49.284L3.37838 50.266L3.9312 51.1252L4.48403 51.8003L5.22113 52.5368L6.14251 53.2119L7.30958 53.8257L8.23096 54.1326L9.09091 54.3167L9.64373 54.3781L11.5479 54.5008L12.715 54.6849L13.6978 54.9918L14.4963 55.2987L15.4791 55.7897L16.4005 56.4034L17.0762 56.9558L17.8133 57.6309L18.3661 58.3061L18.9803 59.1653L19.4717 60.0245L19.9017 60.9452L20.2703 62.1113L20.4545 62.9705L20.6388 65.4869L20.8845 66.8372L21.3145 68.0033L21.8673 68.9853L22.543 69.8445L23.4029 70.7038L24.3243 71.3789L25.3071 71.8699L26.2899 72.2381L27.027 72.4223L27.457 72.4836H29.4226L30.4054 72.2995L31.4496 71.9313L32.4324 71.4403L33.3538 70.8265L34.1523 70.09L34.6437 69.5376L35.258 68.617L35.8108 67.4509L36.1179 66.4075L36.2408 65.671L36.3022 64.5049L36.1794 63.2774L35.8722 62.1113L35.4423 61.0679L34.828 60.0859L34.2752 59.4108L33.5381 58.6743L32.6781 58.0606L31.6953 57.5082L30.8354 57.2013L29.914 56.9558L29.0541 56.8331L27.457 56.7717L26.2899 56.5876L25.1228 56.2807L23.8329 55.7283L22.7273 55.1146L21.9287 54.5008L21.1916 53.8257L20.7617 53.3961L20.086 52.5368L19.5332 51.6776L19.0418 50.6956L18.6118 49.5295L18.3661 48.5475L18.1818 47.32V45.847L18.3661 44.5581L18.6732 43.392L19.1032 42.2872L19.7174 41.1211L20.3931 40.2005L20.9459 39.5254L21.5602 38.9116L22.4201 38.2365L23.4029 37.6227L24.3857 37.1318L25.3685 36.7635L26.6585 36.4566L27.7027 36.3339L29.0541 36.2725L30.2826 36.0884L31.5725 35.6588L32.4939 35.1678L33.3538 34.554L34.0909 33.8789L34.7052 33.2038L35.3194 32.2831L35.8108 31.2398L36.1179 30.135L36.2408 29.4599L36.3022 28.7848V28.171L36.1794 27.0049L35.8722 25.8388L35.4423 24.8568L34.8894 23.9362L34.3366 23.261L33.8452 22.7087L32.9853 22.0336L32.1867 21.5426L31.4496 21.1743L30.344 20.8061L29.2998 20.6219H27.5184ZM27.5799 38.7275L26.2899 38.973L25.3071 39.3412L24.4472 39.7709L23.5872 40.3846L22.8501 41.0597L22.2359 41.7349L21.5602 42.7782L21.1302 43.6989L20.7617 44.865L20.5774 46.2152V46.8903L20.7617 48.1792L21.0074 49.0998L21.4373 50.0818L21.9287 50.9411L22.6044 51.8003L23.3415 52.5368L24.2015 53.1506L25.0614 53.6416L26.1057 54.0712L27.2727 54.3167L27.7641 54.3781L29.6683 54.5008L30.774 54.6849L31.8796 54.9918L33.1695 55.5442L34.0295 56.0352L35.0123 56.7717L35.7494 57.4468L36.1794 57.8764L36.9779 58.9198L37.6536 60.0859L38.145 61.252L38.4521 62.2954L38.6364 63.2774L38.7592 65.3028L38.9435 66.5303L39.3735 67.8191L39.9263 68.8625L40.4791 69.599L41.0319 70.2128L41.4619 70.6424L42.199 71.1948L43.2432 71.8085L44.1646 72.1768L45.1474 72.4223L45.5774 72.4836H47.6658L48.7715 72.2381L49.9386 71.8085L50.9828 71.1948L51.8428 70.5196L52.5799 69.7831L53.2555 68.8625L53.7469 67.9419L54.1155 66.9599L54.3612 65.7938L54.4226 65.2414L54.5455 63.2774L54.7912 62.0499L55.1597 60.9452L55.6511 59.8404L56.1425 59.0426L56.6339 58.3674L57.3096 57.5696L57.8624 57.0172L58.7224 56.3421L59.5823 55.7897L60.5037 55.2987L61.4251 54.9304L62.5921 54.6236L64.1278 54.4394L65.4177 54.3781L66.5848 54.1939L67.5676 53.8871L68.6118 53.3961L69.3489 52.9051L70.1474 52.23L70.7617 51.6162L71.4373 50.6956L71.9287 49.7136L72.2359 48.9157L72.4816 47.8723L72.543 47.5041V45.6628L72.2973 44.4354L72.0516 43.6989L71.4988 42.5327L70.8845 41.6735L70.3317 41.0597L69.8403 40.5687L68.9803 39.955L67.9975 39.4026L66.8305 38.973L65.9705 38.7889L65.4791 38.7275H63.9435L62.8378 38.9116L61.855 39.2185L60.8722 39.7095L60.0123 40.2619L59.2138 40.9984L58.7224 41.4894L58.0467 42.41L57.5553 43.3306L57.1867 44.3126L57.0025 45.1718L56.8796 46.7676L56.6953 48.3633L56.3882 49.6522L56.0197 50.6342L55.5283 51.6162L54.9754 52.5368L54.2998 53.3347V53.4574H54.1769L53.7469 53.9484L53.1327 54.5008L52.0885 55.2373L50.6757 55.9738L49.4472 56.4034L48.0958 56.7103L46.8059 56.8331L45.4545 56.7717L44.1032 56.5262L42.629 56.0352L41.5848 55.5442L40.602 54.9304L39.8034 54.2553L39.312 53.8257L38.6364 53.0892L37.8378 51.9845L37.2236 50.8183L36.7936 49.6522L36.4865 48.3633L36.3636 47.5655L36.3022 46.1538L36.1179 44.8036L35.7494 43.5761L35.0737 42.2872L34.4595 41.4894L34.2138 41.1825L33.7224 40.7529L33.1695 40.2619L32.3096 39.7095L31.4496 39.2799L30.344 38.9116L29.2998 38.7275H27.5799Z"/>
</mask>
<path d="M27.9484 0H28.9312L30.1597 0.12275L31.4496 0.429624L32.6167 0.859247L33.5995 1.35025L34.2752 1.77987L35.0737 2.39362L35.8108 3.06874L36.4865 3.80524L37.1622 4.72586L37.4079 5.15548V5.27823L37.5921 5.21686L38.145 4.35761L38.9435 3.37561L39.8649 2.45499L40.9091 1.65712L41.8305 1.10475L42.9975 0.613748L44.226 0.245499L45.3317 0.0613748L46.0688 0H47.113L48.2801 0.12275L49.3857 0.368249L50.4914 0.736498L51.6585 1.28887L52.7641 2.02537L53.4398 2.57774L54.1155 3.19149L54.6683 3.86661L55.344 4.78723L56.0811 6.19885L56.4496 7.18085L56.7568 8.46972L56.8796 9.32897L57.0025 11.293L57.2482 12.5205L57.6167 13.5025L58.1695 14.5458L58.7838 15.3437L59.398 16.0188L60.258 16.6939L61.0565 17.1849L62.1622 17.6759L63.0835 17.9214L63.8206 18.0442L65.7248 18.1669L66.9533 18.3511L68.059 18.6579L69.3489 19.2103L70.3317 19.7627L71.3145 20.4992L71.9287 21.0516L72.6044 21.7267L73.2801 22.6473L73.8329 23.5679L74.2629 24.4272L74.7543 25.9002L75 27.4345V29.3985L74.7543 30.9329L74.2629 32.4059L73.7715 33.3879L73.2801 34.2471L72.6044 35.1064L71.8673 35.9043L71.2531 36.4566L70.2088 37.1931L69.7789 37.4386V37.5614L70.516 37.991L71.3145 38.6047L72.2359 39.464L72.973 40.3232L73.5872 41.2439L74.14 42.2872L74.6314 43.5761L74.8771 44.6195L75 45.6015V47.5041L74.7543 49.0385L74.2629 50.5115L73.7715 51.4935L73.3415 52.23L72.8501 52.9051L72.2973 53.5802L71.4988 54.3781L70.516 55.1146L69.3489 55.7897L68.1818 56.2807L67.1376 56.5876L65.6634 56.8331L64.2506 56.8944L62.9607 57.0786L61.9165 57.3854L60.8722 57.8764L59.8894 58.5516L59.0909 59.2881L58.5381 59.9018L57.9238 60.8838L57.4939 61.743L57.1867 62.6637L57.0025 63.6457L56.8796 65.671L56.6339 67.0827L56.2654 68.3101L55.774 69.4149L55.2826 70.2741L54.7912 70.9493L54.1155 71.7471L53.3784 72.4836L52.3956 73.2201L51.4742 73.7725L50.43 74.2635L49.5086 74.5704L48.0958 74.8772L46.8673 75H46.1916L44.5946 74.8159L43.4275 74.509L42.4447 74.1408L41.4619 73.6498L40.602 73.0974L39.9877 72.6064L39.1278 71.8085L38.6978 71.3175L37.8993 70.2741L37.5921 69.7831V69.6604L37.4079 69.8445L36.9165 70.581L36.2408 71.4403L35.5037 72.2381L34.7052 72.9133L33.7838 73.527L32.7396 74.0794L31.5725 74.509L30.6511 74.7545L29.484 74.9386L28.7469 75H28.0713L26.4742 74.8159L25.2457 74.509L24.2629 74.1408L23.0958 73.527L22.0516 72.7905L21.4373 72.2381L20.9459 71.8085L20.3931 71.1334L19.8403 70.3969L19.2875 69.4763L18.7961 68.3715L18.3661 66.9599L18.1818 65.8552L18.1204 65.3028L18.059 63.8912L17.8747 62.7864L17.5676 61.8044L17.0762 60.761L16.4005 59.7791L16.0319 59.3494L15.5405 58.9198L14.9877 58.4288L14.1278 57.8764L13.0835 57.3854L12.0393 57.0786L10.8722 56.8944L9.27518 56.8331L8.10811 56.6489L7.18673 56.4034L6.20393 56.0352L5.22113 55.5442L4.23833 54.9304L3.4398 54.2553L2.9484 53.8257L2.51843 53.3347L1.84275 52.4754L1.35135 51.6776L0.859951 50.757L0.429975 49.5908L0.12285 48.3633L0 47.32V45.7242L0.184275 44.4354L0.4914 43.2692L0.982801 42.1031L1.4742 41.1825L1.90418 40.5687L2.39558 39.955L2.9484 39.3412L3.62408 38.6661L4.60688 37.9296L5.28256 37.5L4.6683 37.0704L3.80835 36.4566L3.07125 35.7815L2.51843 35.2291L1.90418 34.4313L1.35135 33.572L0.859951 32.59L0.4914 31.6694L0.184275 30.5646L0 29.2144V27.68L0.184275 26.3298L0.4914 25.1637L1.04423 23.8748L1.59705 22.8928L2.08845 22.2177L2.57985 21.6039L3.13268 20.9902H3.25553V20.8674L4.11548 20.1923L4.914 19.6399L5.89681 19.0876L7.12531 18.5966L8.35381 18.2897L9.15233 18.1669L11.1179 18.0442L12.285 17.8601L13.2064 17.5532L14.1892 17.0622L15.0491 16.5098L15.7862 15.8347L16.0934 15.5278L16.5848 14.9754L17.0762 14.1776L17.5676 13.1956L17.8747 12.1522L18.059 11.1088L18.1204 9.75859L18.3047 8.34697L18.6118 7.18085L18.9803 6.19885L19.4717 5.21686L20.086 4.23486L20.7617 3.43699L20.8231 3.31424H20.9459L21.0688 3.06874L21.8059 2.39362L22.9115 1.59574L23.8943 1.04337L24.8771 0.613748L26.1057 0.245499L27.2113 0.0613748L27.9484 0ZM27.887 2.45499L26.5971 2.63912L25.3071 3.06874L24.2629 3.62111L23.4644 4.23486L22.7273 4.90998L22.113 5.64648L21.4988 6.62848L21.0074 7.73322L20.7617 8.65385L20.6388 9.45172L20.516 11.4157L20.3317 12.5205L20.086 13.5025L19.5946 14.73L18.9803 15.8347L18.3661 16.6939L17.7518 17.3691L17.4447 17.7373L16.769 18.2897L16.1548 18.7807L14.9877 19.4558L13.8821 19.9468L12.8378 20.2537L11.9779 20.4378L10.7494 20.5606L9.52088 20.6219L8.35381 20.8061L7.24816 21.1743L6.20393 21.7267L5.52826 22.2177L4.72973 22.8928L4.1769 23.5065L3.74693 24.1203L3.1941 25.1023L2.82555 26.0229L2.57985 26.9435L2.457 28.0483V28.9075L2.64128 30.1964L3.13268 31.6694L3.74693 32.7741L4.4226 33.6334L5.15971 34.3699L5.95823 34.9836L6.81818 35.4746L7.86241 35.9043L8.84521 36.1498L9.82801 36.2725H10.8722L11.855 36.1498L12.8993 35.8429L13.8821 35.4133L14.742 34.9223L15.4177 34.3699L16.0319 33.8175L16.6462 33.081L17.2604 32.099L17.6904 31.117L17.9361 30.2578L18.1204 29.153L18.1818 27.7414L18.4275 26.1457L18.7961 24.9182L19.2875 23.752L20.0246 22.5245L20.8231 21.5426L21.7445 20.6219L22.7273 19.8854L23.7101 19.3331L24.7543 18.8421L25.9214 18.4738L27.2727 18.2283L28.0098 18.1669H28.8698L30.4668 18.3511L31.6339 18.6579L32.5553 19.0262L33.9681 19.7627L34.8894 20.4378L35.7494 21.1743L36.3636 21.8494L37.1622 22.9542L37.8993 24.3658L38.2678 25.4092L38.5749 26.6367L38.6978 27.7414L38.7592 29.0917L38.9435 30.2578L39.2506 31.2398L39.8034 32.4059L40.2948 33.1424L40.9705 33.8789L41.7076 34.6154L42.3219 35.045L43.3047 35.5974L44.4717 36.027L45.3931 36.2111L45.8845 36.2725H47.4201L48.6486 36.027L49.57 35.7201L50.7371 35.1064L51.4128 34.6154L52.1499 34.0016L52.5799 33.5106L53.1941 32.7128L53.8084 31.5466L54.2383 30.2578L54.3612 29.644L54.4226 29.0303V27.8642L54.2998 26.8822L54.0541 25.9615L53.6241 24.9182L53.1327 24.0589L52.6413 23.4452L52.0885 22.8314L51.4128 22.2177L50.4914 21.6039L49.4472 21.1129L48.4644 20.8061L47.3587 20.6219L45.3317 20.4992L44.2875 20.3151L43.1818 20.0082L41.8919 19.4558L41.0319 18.9648L40.0491 18.2283L39.4349 17.6759L38.7592 17.0008L38.0835 16.0802L37.5921 15.2823L37.0393 14.1162L36.7322 13.1956L36.4251 11.784L36.3022 10.6178L36.2408 9.39034L36.0565 8.34697L35.7494 7.36498L35.258 6.38298L34.7666 5.64648L34.0909 4.84861L33.5995 4.35761L32.6781 3.68249L31.8182 3.19149L30.7125 2.76187L29.6069 2.51637L28.9926 2.45499H27.887ZM46.1302 2.45499L45.086 2.57774L43.9189 2.88462L42.9361 3.31424L42.0762 3.86661L41.4619 4.35761L40.7248 5.09411L40.1106 5.83061L39.5577 6.8126L39.1278 7.7946L38.8821 8.71522L38.7592 9.57447V11.0475L38.9435 12.1522L39.2506 13.1342L39.742 14.1776L40.2334 14.9141L40.7862 15.5892L41.4619 16.2643L42.3833 16.9394L43.5504 17.5532L44.4103 17.8601L45.2088 18.0442L46.683 18.1669L47.973 18.2897L49.0172 18.4738L50.2457 18.8421L51.4742 19.3944L52.5799 20.0696L53.2555 20.6219L53.9926 21.2971L54.6069 21.9722L55.344 23.0155L55.9582 24.1817L56.3882 25.3478L56.6953 26.5753L56.8182 27.3732L56.8796 28.4165L56.7568 29.9509L56.4496 31.3625L56.0197 32.5286L55.344 33.8175L54.6683 34.7995L53.8698 35.7201L53.1327 36.3953L52.1499 37.0704L51.1671 37.6227L50.3071 37.991L49.14 38.3592L47.8501 38.6047L47.2359 38.6661L45.8845 38.7275L44.7174 38.9116L43.4275 39.3412L42.5061 39.8322L41.8305 40.3232L41.2162 40.8756L40.7862 41.2439L40.1106 42.1031L39.5577 43.0237L39.0663 44.2512L38.8821 44.9877L38.7592 45.7856V47.3813L39.0663 48.9157L39.5577 50.0818L40.0491 50.9411L40.7248 51.8003L41.4005 52.4754L42.3219 53.1506L43.1818 53.6416L44.226 54.0712L45.3317 54.3167L45.8231 54.3781H47.3587L48.4644 54.1939L49.57 53.8257L50.5528 53.3347L51.2899 52.8437L52.0885 52.1686L52.8256 51.3707L53.3784 50.5115L53.8698 49.5295L54.1769 48.6088L54.3612 47.6882L54.4226 47.1358L54.5455 45.1718L54.7912 43.9444L55.0983 42.9624L55.5283 41.9804L55.9582 41.1825L56.6953 40.1391L57.5553 39.2185L58.0467 38.7275L59.0295 37.991L60.0123 37.4386L61.0565 36.9476L62.285 36.5794L63.2678 36.3953L63.8206 36.3339L65.2334 36.2725L66.5233 36.0884L67.5061 35.7815L68.7961 35.1678L69.656 34.554L70.4545 33.8175L70.5774 33.572H70.7002L71.3145 32.7741L71.9287 31.608L72.3587 30.3191L72.543 29.3372V27.4959L72.2973 26.2684L71.8673 25.1023L71.3145 24.1203L70.7002 23.3224L69.9631 22.5859L69.226 21.9722L68.1818 21.3584L67.2604 20.9902L66.4005 20.7447L65.5405 20.6219L63.5135 20.4992L62.4079 20.3151L60.9951 19.8854L59.5823 19.2103L58.6609 18.5966L57.9853 18.0442L57.3096 17.4304L56.8796 16.9394L56.2654 16.1416L55.7125 15.2209L55.1597 14.0548L54.8526 13.1342L54.5455 11.7226L54.484 11.1088L54.4226 9.69722L54.2383 8.46972L53.9312 7.42635L53.4398 6.44435L53.0098 5.76923L52.5184 5.15548L51.5971 4.23486L50.7371 3.62111L49.57 3.00736L48.4029 2.63912L47.7273 2.51637L46.9902 2.45499H46.1302ZM27.5184 20.6219L26.2899 20.8674L25.1228 21.2971L24.14 21.8494L23.2801 22.5245L22.4201 23.3838L21.8059 24.243L21.3145 25.1023L20.8845 26.2684L20.7002 27.1277L20.4545 30.0736L20.1474 31.3625L19.7174 32.59L19.0418 33.8789L18.4275 34.7381L17.6904 35.5974L17.2604 36.027L16.5848 36.5794L15.4791 37.3159L14.0663 37.991L12.8993 38.3592L11.6708 38.6047L11.1179 38.6661L9.76658 38.7275L8.47666 38.9116L7.49386 39.2185L6.75676 39.5254L5.95823 40.0164L5.15971 40.6301L4.914 40.8142V40.937H4.79115V41.0597H4.6683V41.1825H4.54545L3.86978 42.0417L3.31695 42.9624L2.88698 43.9444L2.57985 45.0491L2.457 46.2152V47.0131L2.64128 48.302L2.9484 49.284L3.37838 50.266L3.9312 51.1252L4.48403 51.8003L5.22113 52.5368L6.14251 53.2119L7.30958 53.8257L8.23096 54.1326L9.09091 54.3167L9.64373 54.3781L11.5479 54.5008L12.715 54.6849L13.6978 54.9918L14.4963 55.2987L15.4791 55.7897L16.4005 56.4034L17.0762 56.9558L17.8133 57.6309L18.3661 58.3061L18.9803 59.1653L19.4717 60.0245L19.9017 60.9452L20.2703 62.1113L20.4545 62.9705L20.6388 65.4869L20.8845 66.8372L21.3145 68.0033L21.8673 68.9853L22.543 69.8445L23.4029 70.7038L24.3243 71.3789L25.3071 71.8699L26.2899 72.2381L27.027 72.4223L27.457 72.4836H29.4226L30.4054 72.2995L31.4496 71.9313L32.4324 71.4403L33.3538 70.8265L34.1523 70.09L34.6437 69.5376L35.258 68.617L35.8108 67.4509L36.1179 66.4075L36.2408 65.671L36.3022 64.5049L36.1794 63.2774L35.8722 62.1113L35.4423 61.0679L34.828 60.0859L34.2752 59.4108L33.5381 58.6743L32.6781 58.0606L31.6953 57.5082L30.8354 57.2013L29.914 56.9558L29.0541 56.8331L27.457 56.7717L26.2899 56.5876L25.1228 56.2807L23.8329 55.7283L22.7273 55.1146L21.9287 54.5008L21.1916 53.8257L20.7617 53.3961L20.086 52.5368L19.5332 51.6776L19.0418 50.6956L18.6118 49.5295L18.3661 48.5475L18.1818 47.32V45.847L18.3661 44.5581L18.6732 43.392L19.1032 42.2872L19.7174 41.1211L20.3931 40.2005L20.9459 39.5254L21.5602 38.9116L22.4201 38.2365L23.4029 37.6227L24.3857 37.1318L25.3685 36.7635L26.6585 36.4566L27.7027 36.3339L29.0541 36.2725L30.2826 36.0884L31.5725 35.6588L32.4939 35.1678L33.3538 34.554L34.0909 33.8789L34.7052 33.2038L35.3194 32.2831L35.8108 31.2398L36.1179 30.135L36.2408 29.4599L36.3022 28.7848V28.171L36.1794 27.0049L35.8722 25.8388L35.4423 24.8568L34.8894 23.9362L34.3366 23.261L33.8452 22.7087L32.9853 22.0336L32.1867 21.5426L31.4496 21.1743L30.344 20.8061L29.2998 20.6219H27.5184ZM27.5799 38.7275L26.2899 38.973L25.3071 39.3412L24.4472 39.7709L23.5872 40.3846L22.8501 41.0597L22.2359 41.7349L21.5602 42.7782L21.1302 43.6989L20.7617 44.865L20.5774 46.2152V46.8903L20.7617 48.1792L21.0074 49.0998L21.4373 50.0818L21.9287 50.9411L22.6044 51.8003L23.3415 52.5368L24.2015 53.1506L25.0614 53.6416L26.1057 54.0712L27.2727 54.3167L27.7641 54.3781L29.6683 54.5008L30.774 54.6849L31.8796 54.9918L33.1695 55.5442L34.0295 56.0352L35.0123 56.7717L35.7494 57.4468L36.1794 57.8764L36.9779 58.9198L37.6536 60.0859L38.145 61.252L38.4521 62.2954L38.6364 63.2774L38.7592 65.3028L38.9435 66.5303L39.3735 67.8191L39.9263 68.8625L40.4791 69.599L41.0319 70.2128L41.4619 70.6424L42.199 71.1948L43.2432 71.8085L44.1646 72.1768L45.1474 72.4223L45.5774 72.4836H47.6658L48.7715 72.2381L49.9386 71.8085L50.9828 71.1948L51.8428 70.5196L52.5799 69.7831L53.2555 68.8625L53.7469 67.9419L54.1155 66.9599L54.3612 65.7938L54.4226 65.2414L54.5455 63.2774L54.7912 62.0499L55.1597 60.9452L55.6511 59.8404L56.1425 59.0426L56.6339 58.3674L57.3096 57.5696L57.8624 57.0172L58.7224 56.3421L59.5823 55.7897L60.5037 55.2987L61.4251 54.9304L62.5921 54.6236L64.1278 54.4394L65.4177 54.3781L66.5848 54.1939L67.5676 53.8871L68.6118 53.3961L69.3489 52.9051L70.1474 52.23L70.7617 51.6162L71.4373 50.6956L71.9287 49.7136L72.2359 48.9157L72.4816 47.8723L72.543 47.5041V45.6628L72.2973 44.4354L72.0516 43.6989L71.4988 42.5327L70.8845 41.6735L70.3317 41.0597L69.8403 40.5687L68.9803 39.955L67.9975 39.4026L66.8305 38.973L65.9705 38.7889L65.4791 38.7275H63.9435L62.8378 38.9116L61.855 39.2185L60.8722 39.7095L60.0123 40.2619L59.2138 40.9984L58.7224 41.4894L58.0467 42.41L57.5553 43.3306L57.1867 44.3126L57.0025 45.1718L56.8796 46.7676L56.6953 48.3633L56.3882 49.6522L56.0197 50.6342L55.5283 51.6162L54.9754 52.5368L54.2998 53.3347V53.4574H54.1769L53.7469 53.9484L53.1327 54.5008L52.0885 55.2373L50.6757 55.9738L49.4472 56.4034L48.0958 56.7103L46.8059 56.8331L45.4545 56.7717L44.1032 56.5262L42.629 56.0352L41.5848 55.5442L40.602 54.9304L39.8034 54.2553L39.312 53.8257L38.6364 53.0892L37.8378 51.9845L37.2236 50.8183L36.7936 49.6522L36.4865 48.3633L36.3636 47.5655L36.3022 46.1538L36.1179 44.8036L35.7494 43.5761L35.0737 42.2872L34.4595 41.4894L34.2138 41.1825L33.7224 40.7529L33.1695 40.2619L32.3096 39.7095L31.4496 39.2799L30.344 38.9116L29.2998 38.7275H27.5799Z" fill="#040404" stroke="#FF7105" stroke-width="542" mask="url(#path-1-inside-1_57_10)"/>
</svg>
